<mxfile host="65bd71144e">
    <diagram id="wl7HYK-UO5LuUxXT90Uj" name="第 1 页">
        <mxGraphModel dx="2007" dy="859" grid="1" gridSize="10" guides="1" tooltips="1" connect="1" arrows="1" fold="1" page="1" pageScale="1" pageWidth="827" pageHeight="1169" math="0" shadow="0">
            <root>
                <mxCell id="0"/>
                <mxCell id="1" parent="0"/>
                <mxCell id="2" value="" style="endArrow=none;dashed=1;html=1;dashPattern=1 3;strokeWidth=2;" edge="1" parent="1">
                    <mxGeometry width="50" height="50" relative="1" as="geometry">
                        <mxPoint x="-75" y="240" as="sourcePoint"/>
                        <mxPoint x="-55" y="240" as="targetPoint"/>
                    </mxGeometry>
                </mxCell>
                <mxCell id="3" value="" style="endArrow=classic;html=1;" edge="1" parent="1">
                    <mxGeometry width="50" height="50" relative="1" as="geometry">
                        <mxPoint x="-12" y="240" as="sourcePoint"/>
                        <mxPoint x="-49" y="240" as="targetPoint"/>
                    </mxGeometry>
                </mxCell>
                <mxCell id="4" value="" style="rounded=0;whiteSpace=wrap;html=1;" vertex="1" parent="1">
                    <mxGeometry x="-9" y="223" width="120" height="30" as="geometry"/>
                </mxCell>
                <mxCell id="5" value="" style="endArrow=none;html=1;entryX=0.417;entryY=-0.1;entryDx=0;entryDy=0;entryPerimeter=0;" edge="1" parent="1">
                    <mxGeometry width="50" height="50" relative="1" as="geometry">
                        <mxPoint x="48" y="254" as="sourcePoint"/>
                        <mxPoint x="48.039999999999964" y="224" as="targetPoint"/>
                    </mxGeometry>
                </mxCell>
                <mxCell id="6" value="QC" style="text;html=1;strokeColor=none;fillColor=none;align=center;verticalAlign=middle;whiteSpace=wrap;rounded=0;" vertex="1" parent="1">
                    <mxGeometry x="-9" y="223" width="60" height="30" as="geometry"/>
                </mxCell>
                <mxCell id="7" value="cmd1" style="text;html=1;strokeColor=none;fillColor=none;align=center;verticalAlign=middle;whiteSpace=wrap;rounded=0;" vertex="1" parent="1">
                    <mxGeometry x="51" y="223" width="60" height="30" as="geometry"/>
                </mxCell>
                <mxCell id="8" value="" style="endArrow=classic;html=1;" edge="1" parent="1">
                    <mxGeometry width="50" height="50" relative="1" as="geometry">
                        <mxPoint x="148" y="240" as="sourcePoint"/>
                        <mxPoint x="111" y="240" as="targetPoint"/>
                    </mxGeometry>
                </mxCell>
                <mxCell id="9" value="" style="rounded=0;whiteSpace=wrap;html=1;" vertex="1" parent="1">
                    <mxGeometry x="151" y="223" width="120" height="30" as="geometry"/>
                </mxCell>
                <mxCell id="10" value="" style="endArrow=none;html=1;entryX=0.417;entryY=-0.1;entryDx=0;entryDy=0;entryPerimeter=0;" edge="1" parent="1">
                    <mxGeometry width="50" height="50" relative="1" as="geometry">
                        <mxPoint x="208" y="254" as="sourcePoint"/>
                        <mxPoint x="208.03999999999996" y="224" as="targetPoint"/>
                    </mxGeometry>
                </mxCell>
                <mxCell id="11" value="QC" style="text;html=1;strokeColor=none;fillColor=none;align=center;verticalAlign=middle;whiteSpace=wrap;rounded=0;" vertex="1" parent="1">
                    <mxGeometry x="151" y="223" width="60" height="30" as="geometry"/>
                </mxCell>
                <mxCell id="12" value="cmd2" style="text;html=1;strokeColor=none;fillColor=none;align=center;verticalAlign=middle;whiteSpace=wrap;rounded=0;" vertex="1" parent="1">
                    <mxGeometry x="211" y="223" width="60" height="30" as="geometry"/>
                </mxCell>
                <mxCell id="13" value="" style="endArrow=classic;html=1;" edge="1" parent="1">
                    <mxGeometry width="50" height="50" relative="1" as="geometry">
                        <mxPoint x="308" y="241" as="sourcePoint"/>
                        <mxPoint x="271" y="241" as="targetPoint"/>
                    </mxGeometry>
                </mxCell>
                <mxCell id="14" value="" style="rounded=0;whiteSpace=wrap;html=1;" vertex="1" parent="1">
                    <mxGeometry x="311" y="224" width="120" height="30" as="geometry"/>
                </mxCell>
                <mxCell id="15" value="" style="endArrow=none;html=1;entryX=0.417;entryY=-0.1;entryDx=0;entryDy=0;entryPerimeter=0;" edge="1" parent="1">
                    <mxGeometry width="50" height="50" relative="1" as="geometry">
                        <mxPoint x="368" y="255" as="sourcePoint"/>
                        <mxPoint x="368.03999999999996" y="225" as="targetPoint"/>
                    </mxGeometry>
                </mxCell>
                <mxCell id="16" value="QC" style="text;html=1;strokeColor=none;fillColor=none;align=center;verticalAlign=middle;whiteSpace=wrap;rounded=0;" vertex="1" parent="1">
                    <mxGeometry x="311" y="224" width="60" height="30" as="geometry"/>
                </mxCell>
                <mxCell id="17" value="cmd3" style="text;html=1;strokeColor=none;fillColor=none;align=center;verticalAlign=middle;whiteSpace=wrap;rounded=0;" vertex="1" parent="1">
                    <mxGeometry x="371" y="224" width="60" height="30" as="geometry"/>
                </mxCell>
                <mxCell id="18" value="" style="endArrow=classic;html=1;" edge="1" parent="1">
                    <mxGeometry width="50" height="50" relative="1" as="geometry">
                        <mxPoint x="468" y="241" as="sourcePoint"/>
                        <mxPoint x="431" y="241" as="targetPoint"/>
                    </mxGeometry>
                </mxCell>
                <mxCell id="19" value="" style="rounded=0;whiteSpace=wrap;html=1;" vertex="1" parent="1">
                    <mxGeometry x="471" y="224" width="120" height="30" as="geometry"/>
                </mxCell>
                <mxCell id="20" value="" style="endArrow=none;html=1;entryX=0.417;entryY=-0.1;entryDx=0;entryDy=0;entryPerimeter=0;" edge="1" parent="1">
                    <mxGeometry width="50" height="50" relative="1" as="geometry">
                        <mxPoint x="528" y="255" as="sourcePoint"/>
                        <mxPoint x="528.04" y="225" as="targetPoint"/>
                    </mxGeometry>
                </mxCell>
                <mxCell id="21" value="QC" style="text;html=1;strokeColor=none;fillColor=none;align=center;verticalAlign=middle;whiteSpace=wrap;rounded=0;" vertex="1" parent="1">
                    <mxGeometry x="471" y="224" width="60" height="30" as="geometry"/>
                </mxCell>
                <mxCell id="22" value="cmd4" style="text;html=1;strokeColor=none;fillColor=none;align=center;verticalAlign=middle;whiteSpace=wrap;rounded=0;" vertex="1" parent="1">
                    <mxGeometry x="531" y="224" width="60" height="30" as="geometry"/>
                </mxCell>
                <mxCell id="23" value="" style="endArrow=classic;html=1;" edge="1" parent="1">
                    <mxGeometry width="50" height="50" relative="1" as="geometry">
                        <mxPoint x="628" y="241" as="sourcePoint"/>
                        <mxPoint x="591" y="241" as="targetPoint"/>
                    </mxGeometry>
                </mxCell>
                <mxCell id="24" value="" style="rounded=0;whiteSpace=wrap;html=1;" vertex="1" parent="1">
                    <mxGeometry x="631" y="224" width="120" height="30" as="geometry"/>
                </mxCell>
                <mxCell id="25" value="" style="endArrow=none;html=1;entryX=0.417;entryY=-0.1;entryDx=0;entryDy=0;entryPerimeter=0;" edge="1" parent="1">
                    <mxGeometry width="50" height="50" relative="1" as="geometry">
                        <mxPoint x="688" y="255" as="sourcePoint"/>
                        <mxPoint x="688.04" y="225" as="targetPoint"/>
                    </mxGeometry>
                </mxCell>
                <mxCell id="26" value="QC" style="text;html=1;strokeColor=none;fillColor=none;align=center;verticalAlign=middle;whiteSpace=wrap;rounded=0;" vertex="1" parent="1">
                    <mxGeometry x="631" y="224" width="60" height="30" as="geometry"/>
                </mxCell>
                <mxCell id="27" value="cmd5" style="text;html=1;strokeColor=none;fillColor=none;align=center;verticalAlign=middle;whiteSpace=wrap;rounded=0;" vertex="1" parent="1">
                    <mxGeometry x="691" y="224" width="60" height="30" as="geometry"/>
                </mxCell>
                <mxCell id="30" value="" style="endArrow=none;dashed=1;html=1;dashPattern=1 3;strokeWidth=2;" edge="1" parent="1">
                    <mxGeometry width="50" height="50" relative="1" as="geometry">
                        <mxPoint x="816" y="240" as="sourcePoint"/>
                        <mxPoint x="796" y="240" as="targetPoint"/>
                    </mxGeometry>
                </mxCell>
                <mxCell id="31" value="" style="endArrow=classic;html=1;entryX=1;entryY=0.5;entryDx=0;entryDy=0;" edge="1" parent="1" target="27">
                    <mxGeometry width="50" height="50" relative="1" as="geometry">
                        <mxPoint x="788" y="239" as="sourcePoint"/>
                        <mxPoint x="828" y="310" as="targetPoint"/>
                    </mxGeometry>
                </mxCell>
                <mxCell id="32" value="" style="rounded=0;whiteSpace=wrap;html=1;" vertex="1" parent="1">
                    <mxGeometry x="-12" y="280" width="540" height="30" as="geometry"/>
                </mxCell>
                <mxCell id="33" value="PREPARE" style="text;html=1;strokeColor=none;fillColor=none;align=center;verticalAlign=middle;whiteSpace=wrap;rounded=0;" vertex="1" parent="1">
                    <mxGeometry x="-9" y="280" width="60" height="30" as="geometry"/>
                </mxCell>
                <mxCell id="34" value="PRE-COMMIT" style="text;html=1;strokeColor=none;fillColor=none;align=center;verticalAlign=middle;whiteSpace=wrap;rounded=0;" vertex="1" parent="1">
                    <mxGeometry x="128" y="280" width="83" height="30" as="geometry"/>
                </mxCell>
                <mxCell id="35" value="COMMIT" style="text;html=1;strokeColor=none;fillColor=none;align=center;verticalAlign=middle;whiteSpace=wrap;rounded=0;" vertex="1" parent="1">
                    <mxGeometry x="298" y="280" width="60" height="30" as="geometry"/>
                </mxCell>
                <mxCell id="37" value="DECIDE" style="text;html=1;strokeColor=none;fillColor=none;align=center;verticalAlign=middle;whiteSpace=wrap;rounded=0;" vertex="1" parent="1">
                    <mxGeometry x="458" y="280" width="60" height="30" as="geometry"/>
                </mxCell>
                <mxCell id="38" value="cmd1" style="text;html=1;strokeColor=none;fillColor=none;align=center;verticalAlign=middle;whiteSpace=wrap;rounded=0;" vertex="1" parent="1">
                    <mxGeometry x="-72" y="280" width="60" height="30" as="geometry"/>
                </mxCell>
                <mxCell id="39" value="" style="rounded=0;whiteSpace=wrap;html=1;dashed=1;dashPattern=8 8;" vertex="1" parent="1">
                    <mxGeometry x="618" y="280" width="130" height="30" as="geometry"/>
                </mxCell>
                <mxCell id="40" value="PREPARE" style="text;html=1;strokeColor=none;fillColor=none;align=center;verticalAlign=middle;whiteSpace=wrap;rounded=0;" vertex="1" parent="1">
                    <mxGeometry x="621" y="280" width="60" height="30" as="geometry"/>
                </mxCell>
                <mxCell id="44" value="cmd5" style="text;html=1;strokeColor=none;fillColor=none;align=center;verticalAlign=middle;whiteSpace=wrap;rounded=0;" vertex="1" parent="1">
                    <mxGeometry x="558" y="280" width="60" height="30" as="geometry"/>
                </mxCell>
                <mxCell id="46" value="" style="rounded=0;whiteSpace=wrap;html=1;" vertex="1" parent="1">
                    <mxGeometry x="151" y="330" width="597" height="30" as="geometry"/>
                </mxCell>
                <mxCell id="47" value="PREPARE" style="text;html=1;strokeColor=none;fillColor=none;align=center;verticalAlign=middle;whiteSpace=wrap;rounded=0;" vertex="1" parent="1">
                    <mxGeometry x="154" y="330" width="60" height="30" as="geometry"/>
                </mxCell>
                <mxCell id="48" value="PRE-COMMIT" style="text;html=1;strokeColor=none;fillColor=none;align=center;verticalAlign=middle;whiteSpace=wrap;rounded=0;" vertex="1" parent="1">
                    <mxGeometry x="291" y="330" width="83" height="30" as="geometry"/>
                </mxCell>
                <mxCell id="49" value="COMMIT" style="text;html=1;strokeColor=none;fillColor=none;align=center;verticalAlign=middle;whiteSpace=wrap;rounded=0;" vertex="1" parent="1">
                    <mxGeometry x="461" y="330" width="60" height="30" as="geometry"/>
                </mxCell>
                <mxCell id="50" value="DECIDE" style="text;html=1;strokeColor=none;fillColor=none;align=center;verticalAlign=middle;whiteSpace=wrap;rounded=0;" vertex="1" parent="1">
                    <mxGeometry x="621" y="330" width="60" height="30" as="geometry"/>
                </mxCell>
                <mxCell id="51" value="cmd2" style="text;html=1;strokeColor=none;fillColor=none;align=center;verticalAlign=middle;whiteSpace=wrap;rounded=0;" vertex="1" parent="1">
                    <mxGeometry x="91" y="330" width="60" height="30" as="geometry"/>
                </mxCell>
                <mxCell id="52" value="" style="rounded=0;whiteSpace=wrap;html=1;dashed=1;dashPattern=8 8;" vertex="1" parent="1">
                    <mxGeometry x="298.5" y="374" width="449.5" height="30" as="geometry"/>
                </mxCell>
                <mxCell id="53" value="PREPARE" style="text;html=1;strokeColor=none;fillColor=none;align=center;verticalAlign=middle;whiteSpace=wrap;rounded=0;" vertex="1" parent="1">
                    <mxGeometry x="301.5" y="374" width="60" height="30" as="geometry"/>
                </mxCell>
                <mxCell id="54" value="PRE-COMMIT" style="text;html=1;strokeColor=none;fillColor=none;align=center;verticalAlign=middle;whiteSpace=wrap;rounded=0;" vertex="1" parent="1">
                    <mxGeometry x="448.5" y="374" width="83" height="30" as="geometry"/>
                </mxCell>
                <mxCell id="55" value="COMMIT" style="text;html=1;strokeColor=none;fillColor=none;align=center;verticalAlign=middle;whiteSpace=wrap;rounded=0;" vertex="1" parent="1">
                    <mxGeometry x="619.5" y="374" width="60" height="30" as="geometry"/>
                </mxCell>
                <mxCell id="57" value="cmd3" style="text;html=1;strokeColor=none;fillColor=none;align=center;verticalAlign=middle;whiteSpace=wrap;rounded=0;" vertex="1" parent="1">
                    <mxGeometry x="238.5" y="374" width="60" height="30" as="geometry"/>
                </mxCell>
                <mxCell id="58" value="" style="rounded=0;whiteSpace=wrap;html=1;dashed=1;dashPattern=8 8;" vertex="1" parent="1">
                    <mxGeometry x="448" y="430" width="300" height="30" as="geometry"/>
                </mxCell>
                <mxCell id="59" value="PREPARE" style="text;html=1;strokeColor=none;fillColor=none;align=center;verticalAlign=middle;whiteSpace=wrap;rounded=0;" vertex="1" parent="1">
                    <mxGeometry x="453" y="430" width="60" height="30" as="geometry"/>
                </mxCell>
                <mxCell id="60" value="PRE-COMMIT" style="text;html=1;strokeColor=none;fillColor=none;align=center;verticalAlign=middle;whiteSpace=wrap;rounded=0;" vertex="1" parent="1">
                    <mxGeometry x="603" y="430" width="83" height="30" as="geometry"/>
                </mxCell>
                <mxCell id="62" value="cmd4" style="text;html=1;strokeColor=none;fillColor=none;align=center;verticalAlign=middle;whiteSpace=wrap;rounded=0;" vertex="1" parent="1">
                    <mxGeometry x="388" y="430" width="60" height="30" as="geometry"/>
                </mxCell>
            </root>
        </mxGraphModel>
    </diagram>
</mxfile>